<mxfile host="app.diagrams.net" modified="2023-05-18T10:38:10.013Z" agent="Mozilla/5.0 (Windows NT 10.0; Win64; x64) AppleWebKit/537.36 (KHTML, like Gecko) Chrome/113.0.0.0 Safari/537.36 Edg/113.0.1774.42" etag="lAFm11ezRzMiR4QLvWj5" version="21.3.2" type="github">
  <diagram name="Page-1" id="b5b7bab2-c9e2-2cf4-8b2a-24fd1a2a6d21">
    <mxGraphModel dx="1158" dy="906" grid="1" gridSize="10" guides="1" tooltips="1" connect="1" arrows="1" fold="1" page="1" pageScale="1" pageWidth="827" pageHeight="1169" background="none" math="0" shadow="0">
      <root>
        <mxCell id="0" />
        <mxCell id="1" parent="0" />
        <mxCell id="NLb3KwNzrhoPw6QWM6QT-1" value="商品" style="rounded=0;whiteSpace=wrap;html=1;" vertex="1" parent="1">
          <mxGeometry x="414" y="510" width="120" height="60" as="geometry" />
        </mxCell>
        <mxCell id="NLb3KwNzrhoPw6QWM6QT-37" style="edgeStyle=orthogonalEdgeStyle;rounded=0;orthogonalLoop=1;jettySize=auto;html=1;" edge="1" parent="1" source="NLb3KwNzrhoPw6QWM6QT-2">
          <mxGeometry relative="1" as="geometry">
            <mxPoint x="410" y="530" as="targetPoint" />
          </mxGeometry>
        </mxCell>
        <mxCell id="NLb3KwNzrhoPw6QWM6QT-2" value="订单" style="rounded=0;whiteSpace=wrap;html=1;" vertex="1" parent="1">
          <mxGeometry x="150" y="500" width="120" height="60" as="geometry" />
        </mxCell>
        <mxCell id="NLb3KwNzrhoPw6QWM6QT-36" style="edgeStyle=orthogonalEdgeStyle;rounded=0;orthogonalLoop=1;jettySize=auto;html=1;entryX=0.25;entryY=0;entryDx=0;entryDy=0;" edge="1" parent="1" source="NLb3KwNzrhoPw6QWM6QT-4" target="NLb3KwNzrhoPw6QWM6QT-1">
          <mxGeometry relative="1" as="geometry" />
        </mxCell>
        <mxCell id="NLb3KwNzrhoPw6QWM6QT-4" value="运输" style="rounded=0;whiteSpace=wrap;html=1;" vertex="1" parent="1">
          <mxGeometry x="160" y="340" width="120" height="60" as="geometry" />
        </mxCell>
        <mxCell id="NLb3KwNzrhoPw6QWM6QT-33" style="edgeStyle=orthogonalEdgeStyle;rounded=0;orthogonalLoop=1;jettySize=auto;html=1;entryX=1;entryY=0.5;entryDx=0;entryDy=0;" edge="1" parent="1" source="NLb3KwNzrhoPw6QWM6QT-6" target="NLb3KwNzrhoPw6QWM6QT-1">
          <mxGeometry relative="1" as="geometry" />
        </mxCell>
        <mxCell id="NLb3KwNzrhoPw6QWM6QT-6" value="库存" style="rounded=0;whiteSpace=wrap;html=1;" vertex="1" parent="1">
          <mxGeometry x="700" y="450" width="120" height="60" as="geometry" />
        </mxCell>
        <mxCell id="NLb3KwNzrhoPw6QWM6QT-35" style="edgeStyle=orthogonalEdgeStyle;rounded=0;orthogonalLoop=1;jettySize=auto;html=1;entryX=0.5;entryY=0;entryDx=0;entryDy=0;" edge="1" parent="1" source="NLb3KwNzrhoPw6QWM6QT-8" target="NLb3KwNzrhoPw6QWM6QT-6">
          <mxGeometry relative="1" as="geometry" />
        </mxCell>
        <mxCell id="NLb3KwNzrhoPw6QWM6QT-8" value="采购" style="rounded=0;whiteSpace=wrap;html=1;" vertex="1" parent="1">
          <mxGeometry x="700" y="290" width="120" height="60" as="geometry" />
        </mxCell>
        <mxCell id="NLb3KwNzrhoPw6QWM6QT-30" style="edgeStyle=orthogonalEdgeStyle;rounded=0;orthogonalLoop=1;jettySize=auto;html=1;entryX=0.317;entryY=1.033;entryDx=0;entryDy=0;entryPerimeter=0;" edge="1" parent="1" source="NLb3KwNzrhoPw6QWM6QT-10" target="NLb3KwNzrhoPw6QWM6QT-1">
          <mxGeometry relative="1" as="geometry" />
        </mxCell>
        <mxCell id="NLb3KwNzrhoPw6QWM6QT-10" value="用户" style="rounded=0;whiteSpace=wrap;html=1;" vertex="1" parent="1">
          <mxGeometry x="240" y="690" width="120" height="60" as="geometry" />
        </mxCell>
        <mxCell id="NLb3KwNzrhoPw6QWM6QT-34" style="edgeStyle=orthogonalEdgeStyle;rounded=0;orthogonalLoop=1;jettySize=auto;html=1;entryX=0.75;entryY=1;entryDx=0;entryDy=0;" edge="1" parent="1" source="NLb3KwNzrhoPw6QWM6QT-11" target="NLb3KwNzrhoPw6QWM6QT-1">
          <mxGeometry relative="1" as="geometry" />
        </mxCell>
        <mxCell id="NLb3KwNzrhoPw6QWM6QT-11" value="商户" style="rounded=0;whiteSpace=wrap;html=1;" vertex="1" parent="1">
          <mxGeometry x="675" y="692.5" width="116" height="65" as="geometry" />
        </mxCell>
        <mxCell id="NLb3KwNzrhoPw6QWM6QT-18" style="edgeStyle=orthogonalEdgeStyle;rounded=0;orthogonalLoop=1;jettySize=auto;html=1;entryX=0.5;entryY=1;entryDx=0;entryDy=0;" edge="1" parent="1" target="NLb3KwNzrhoPw6QWM6QT-11">
          <mxGeometry relative="1" as="geometry">
            <mxPoint x="550" y="842.5" as="sourcePoint" />
            <Array as="points">
              <mxPoint x="550" y="802.5" />
              <mxPoint x="733" y="802.5" />
            </Array>
          </mxGeometry>
        </mxCell>
        <mxCell id="NLb3KwNzrhoPw6QWM6QT-12" value="药企" style="rounded=0;whiteSpace=wrap;html=1;" vertex="1" parent="1">
          <mxGeometry x="506" y="842.5" width="110" height="60" as="geometry" />
        </mxCell>
        <mxCell id="NLb3KwNzrhoPw6QWM6QT-19" style="edgeStyle=orthogonalEdgeStyle;rounded=0;orthogonalLoop=1;jettySize=auto;html=1;entryX=0.5;entryY=1;entryDx=0;entryDy=0;" edge="1" parent="1" source="NLb3KwNzrhoPw6QWM6QT-13" target="NLb3KwNzrhoPw6QWM6QT-11">
          <mxGeometry relative="1" as="geometry" />
        </mxCell>
        <mxCell id="NLb3KwNzrhoPw6QWM6QT-13" value="医疗机构" style="rounded=0;whiteSpace=wrap;html=1;" vertex="1" parent="1">
          <mxGeometry x="678" y="842.5" width="110" height="60" as="geometry" />
        </mxCell>
        <mxCell id="NLb3KwNzrhoPw6QWM6QT-21" style="edgeStyle=orthogonalEdgeStyle;rounded=0;orthogonalLoop=1;jettySize=auto;html=1;" edge="1" parent="1" source="NLb3KwNzrhoPw6QWM6QT-14" target="NLb3KwNzrhoPw6QWM6QT-11">
          <mxGeometry relative="1" as="geometry">
            <Array as="points">
              <mxPoint x="856" y="802.5" />
              <mxPoint x="733" y="802.5" />
            </Array>
          </mxGeometry>
        </mxCell>
        <mxCell id="NLb3KwNzrhoPw6QWM6QT-14" value="经营企业" style="rounded=0;whiteSpace=wrap;html=1;" vertex="1" parent="1">
          <mxGeometry x="825" y="842.5" width="110" height="60" as="geometry" />
        </mxCell>
        <mxCell id="NLb3KwNzrhoPw6QWM6QT-15" value="营销" style="rounded=0;whiteSpace=wrap;html=1;" vertex="1" parent="1">
          <mxGeometry x="940" y="500" width="120" height="60" as="geometry" />
        </mxCell>
        <mxCell id="NLb3KwNzrhoPw6QWM6QT-16" value="医生" style="rounded=0;whiteSpace=wrap;html=1;" vertex="1" parent="1">
          <mxGeometry x="270" y="880" width="120" height="60" as="geometry" />
        </mxCell>
        <mxCell id="NLb3KwNzrhoPw6QWM6QT-17" value="" style="endArrow=classic;html=1;rounded=0;entryX=0.75;entryY=1;entryDx=0;entryDy=0;" edge="1" parent="1" source="NLb3KwNzrhoPw6QWM6QT-16" target="NLb3KwNzrhoPw6QWM6QT-10">
          <mxGeometry width="50" height="50" relative="1" as="geometry">
            <mxPoint x="180" y="810" as="sourcePoint" />
            <mxPoint x="230" y="760" as="targetPoint" />
          </mxGeometry>
        </mxCell>
        <mxCell id="NLb3KwNzrhoPw6QWM6QT-29" style="edgeStyle=orthogonalEdgeStyle;rounded=0;orthogonalLoop=1;jettySize=auto;html=1;entryX=0.25;entryY=1;entryDx=0;entryDy=0;" edge="1" parent="1" source="NLb3KwNzrhoPw6QWM6QT-22" target="NLb3KwNzrhoPw6QWM6QT-10">
          <mxGeometry relative="1" as="geometry" />
        </mxCell>
        <mxCell id="NLb3KwNzrhoPw6QWM6QT-22" value="商家" style="rounded=0;whiteSpace=wrap;html=1;" vertex="1" parent="1">
          <mxGeometry x="30" y="840" width="120" height="60" as="geometry" />
        </mxCell>
        <mxCell id="NLb3KwNzrhoPw6QWM6QT-25" style="edgeStyle=orthogonalEdgeStyle;rounded=0;orthogonalLoop=1;jettySize=auto;html=1;" edge="1" parent="1" source="NLb3KwNzrhoPw6QWM6QT-24" target="NLb3KwNzrhoPw6QWM6QT-22">
          <mxGeometry relative="1" as="geometry" />
        </mxCell>
        <mxCell id="NLb3KwNzrhoPw6QWM6QT-24" value="财务" style="rounded=0;whiteSpace=wrap;html=1;" vertex="1" parent="1">
          <mxGeometry x="30" y="960" width="120" height="60" as="geometry" />
        </mxCell>
        <mxCell id="NLb3KwNzrhoPw6QWM6QT-27" style="edgeStyle=orthogonalEdgeStyle;rounded=0;orthogonalLoop=1;jettySize=auto;html=1;entryX=0.75;entryY=1;entryDx=0;entryDy=0;" edge="1" parent="1" source="NLb3KwNzrhoPw6QWM6QT-26" target="NLb3KwNzrhoPw6QWM6QT-22">
          <mxGeometry relative="1" as="geometry">
            <Array as="points">
              <mxPoint x="230" y="930" />
              <mxPoint x="120" y="930" />
            </Array>
          </mxGeometry>
        </mxCell>
        <mxCell id="NLb3KwNzrhoPw6QWM6QT-26" value="快递" style="rounded=0;whiteSpace=wrap;html=1;" vertex="1" parent="1">
          <mxGeometry x="170" y="960" width="120" height="60" as="geometry" />
        </mxCell>
        <mxCell id="NLb3KwNzrhoPw6QWM6QT-38" value="财务" style="rounded=0;whiteSpace=wrap;html=1;" vertex="1" parent="1">
          <mxGeometry x="935" y="270" width="120" height="60" as="geometry" />
        </mxCell>
        <mxCell id="NLb3KwNzrhoPw6QWM6QT-39" value="处方" style="rounded=0;whiteSpace=wrap;html=1;" vertex="1" parent="1">
          <mxGeometry x="940" y="710" width="120" height="60" as="geometry" />
        </mxCell>
        <mxCell id="NLb3KwNzrhoPw6QWM6QT-41" value="资讯" style="rounded=0;whiteSpace=wrap;html=1;" vertex="1" parent="1">
          <mxGeometry x="935" y="390" width="120" height="60" as="geometry" />
        </mxCell>
        <mxCell id="NLb3KwNzrhoPw6QWM6QT-42" value="报表" style="rounded=0;whiteSpace=wrap;html=1;" vertex="1" parent="1">
          <mxGeometry x="940" y="600" width="120" height="60" as="geometry" />
        </mxCell>
      </root>
    </mxGraphModel>
  </diagram>
</mxfile>
